<?xml version="1.0" encoding="UTF-8" standalone="no"?>
<!DOCTYPE svg PUBLIC "-//W3C//DTD SVG 1.1//EN" "http://www.w3.org/Graphics/SVG/1.1/DTD/svg11.dtd">
<svg width="100%" height="100%" viewBox="0 0 1200 1200" version="1.1" xmlns="http://www.w3.org/2000/svg" xmlns:xlink="http://www.w3.org/1999/xlink" xml:space="preserve" xmlns:serif="http://www.serif.com/" style="fill-rule:evenodd;clip-rule:evenodd;stroke-miterlimit:2.613;">
    <g id="Background">
        <g transform="matrix(2.96105,0,0,2.97794,-35.2113,10.163)">
            <g transform="matrix(0.239507,0,0,0.239507,11.763,24.2086)">
                <rect x="5.748" y="5.495" width="2488.51" height="1440.02" style="fill:white;"/>
            </g>
            <g transform="matrix(0.239507,0,0,0.239507,11.763,24.2086)">
                <path d="M5.748,971.857L2493.43,971.857L2493.43,1444.69L5.748,1444.69L5.748,971.857ZM5.748,6.325L2493.43,6.325L2493.43,488.267L5.748,488.267L5.748,6.325Z" style="fill:rgb(51,52,142);"/>
            </g>
            <g transform="matrix(0.239507,0,0,0.239507,11.763,24.2086)">
                <path d="M1253.32,994.265C1222.63,1040.72 1179.5,1086.34 1133.06,1119.52C917.386,1276.3 611.298,1228.19 454.522,1011.69C297.746,796.855 345.027,491.585 561.528,334.82C777.199,178.044 1083.29,226.155 1240.06,441.827L1065.03,572.877C978.758,452.61 809.539,426.054 689.26,513.152C569.812,600.251 544.097,768.64 630.366,886.418C717.464,1005.87 886.683,1032.42 1006.13,946.154C1031.85,927.905 1055.07,902.19 1073.32,876.476L1253.32,994.265Z" style="fill:rgb(204,34,41);stroke:black;stroke-width:1.96px;"/>
            </g>
            <g transform="matrix(0.239507,0,0,0.239507,11.763,24.2086)">
                <path d="M846.037,460.894C994.518,460.894 1115.63,581.172 1115.63,729.653C1115.63,878.135 994.518,998.413 846.037,998.413C697.555,998.413 576.448,878.135 576.448,729.653C576.448,581.172 697.555,460.894 846.037,460.894Z" style="fill:rgb(255,242,45);stroke:black;stroke-width:1.18px;"/>
            </g>
            <g transform="matrix(0.239507,0,0,0.239507,11.763,24.2086)">
                <rect x="5.748" y="5.495" width="2488.51" height="1440.02" style="fill:none;stroke:black;stroke-width:10.99px;"/>
            </g>
        </g>
        <path d="M1201.81,-4.174L1201.81,1205.78L-0.626,1205.78L-0.626,-4.174L1201.81,-4.174ZM595.365,95.418C874.024,95.418 1100.26,321.654 1100.26,600.313C1100.26,878.971 874.024,1105.21 595.365,1105.21C316.707,1105.21 90.471,878.971 90.471,600.313C90.471,321.654 316.707,95.418 595.365,95.418Z" style="fill:rgb(255,242,45);"/>
    </g>
</svg>
