<?xml version="1.0" standalone="no"?>
<!DOCTYPE svg PUBLIC "-//W3C//DTD SVG 20010904//EN"
 "http://www.w3.org/TR/2001/REC-SVG-20010904/DTD/svg10.dtd">
<svg version="1.0" xmlns="http://www.w3.org/2000/svg"
 width="700.000000pt" height="700.000000pt" viewBox="0 0 700.000000 700.000000"
 preserveAspectRatio="xMidYMid meet">
<metadata>
Created by potrace 1.11, written by Peter Selinger 2001-2013
</metadata>
<g transform="translate(0.000000,700.000000) scale(0.100000,-0.100000)"
fill="#000000" stroke="none">
<path d="M3479 6606 c-2 -2 -51 -6 -109 -10 -58 -3 -114 -8 -125 -10 -11 -2
-45 -7 -75 -11 -96 -12 -112 -15 -254 -46 -811 -179 -1536 -700 -1958 -1407
-176 -294 -266 -512 -359 -862 -13 -50 -46 -222 -59 -310 -22 -147 -25 -208
-24 -450 0 -235 4 -299 24 -420 5 -30 12 -75 15 -100 4 -24 8 -47 10 -50 2 -3
6 -23 9 -45 35 -225 177 -608 323 -869 81 -143 254 -400 303 -446 3 -3 29 -34
59 -70 61 -74 260 -272 341 -340 290 -245 675 -460 1025 -573 263 -85 474
-127 765 -152 80 -7 353 -7 435 0 135 11 181 16 235 25 30 5 73 12 95 16 22 3
69 12 105 20 36 8 76 17 90 20 14 3 79 21 145 40 245 73 516 194 732 328 86
53 312 210 323 225 3 3 34 31 70 60 161 135 382 377 519 570 44 61 50 76 39
86 -7 7 -218 147 -468 310 -250 164 -498 326 -551 361 -53 35 -104 66 -112 70
-14 5 -14 8 3 26 36 39 146 275 184 393 2 6 6 17 9 25 11 28 46 195 52 245 3
28 7 61 10 75 11 55 5 311 -10 410 -36 243 -118 466 -242 662 -30 48 -52 91
-49 96 3 5 204 157 447 338 243 181 446 334 453 339 6 6 36 28 66 50 30 22 57
42 60 45 3 3 22 18 43 33 l37 28 -22 30 c-396 514 -875 865 -1463 1069 -188
66 -450 129 -605 145 -36 4 -67 8 -70 10 -21 13 -408 25 -431 14 -9 -5 -20 -4
-26 2 -5 5 -11 8 -14 5z"/>
</g>
</svg>
